<?xml version="1.0" encoding="UTF-8"?>
<svg version="1.1" xmlns="http://www.w3.org/2000/svg" width="225" height="225">
<path d="M0 0 C74.25 0 148.5 0 225 0 C225 74.25 225 148.5 225 225 C150.75 225 76.5 225 0 225 C0 150.75 0 76.5 0 0 Z " fill="#FEFEFE" transform="translate(0,0)"/>
<path d="M0 0 C6.83910885 4.02300521 10.85662135 7.64041071 13.53515625 15.28515625 C15.10811582 21.52989995 14.63739854 26.9033723 12.1875 32.875 C7.77531079 32.42953859 5.22197273 29.42931773 2.1875 26.5 C-3.43880874 20.56035447 -3.43880874 20.56035447 -10.63671875 17.34375 C-15.11924269 18.0935941 -17.36240754 20.34067149 -20.625 23.375 C-21.23230957 23.92164307 -21.83961914 24.46828613 -22.46533203 25.03149414 C-23.68445375 26.12934958 -24.89906766 27.23223359 -26.10888672 28.34033203 C-27.611014 29.69349513 -29.16352457 30.99027532 -30.72265625 32.27734375 C-31.53605469 32.94894531 -32.34945312 33.62054688 -33.1875 34.3125 C-33.89648438 34.88871094 -34.60546875 35.46492188 -35.3359375 36.05859375 C-37.25762994 38.42258049 -37.10759368 39.90879974 -36.8125 42.875 C-35.1625 43.535 -33.5125 44.195 -31.8125 44.875 C-31.8125 51.475 -31.8125 58.075 -31.8125 64.875 C-44.60460943 59.75815623 -56.30985187 52.71511659 -63.8125 40.875 C-64.43125 40.00681641 -64.43125 40.00681641 -65.0625 39.12109375 C-69.06387809 32.68832272 -68.73765714 25.1805512 -67.8125 17.875 C-65.85449103 12.45035221 -62.98273128 9.42996852 -57.8125 6.875 C-50.53137855 5.73185363 -44.48208493 6.87351168 -37.96875 10.1953125 C-35.83316587 11.09995011 -35.83316587 11.09995011 -33.80078125 10.20703125 C-31.59109196 8.72666966 -29.55086282 7.13137427 -27.5 5.4375 C-18.93695199 -1.23500494 -10.54358512 -3.11122184 0 0 Z " fill="#195BA6" transform="translate(86.8125,77.125)"/>
<path d="M0 0 C1.258125 -0.04125 2.51625 -0.0825 3.8125 -0.125 C4.52019531 -0.14820312 5.22789063 -0.17140625 5.95703125 -0.1953125 C8 0 8 0 11 2 C11.99 1.34 12.98 0.68 14 0 C16.6875 -0.125 16.6875 -0.125 19 0 C19.66 1.32 20.32 2.64 21 4 C18.03 3.505 18.03 3.505 15 3 C16.37691962 5.75383923 18.36720042 6.51483101 21 8 C20.6875 10.375 20.6875 10.375 20 13 C19.01 13.66 18.02 14.32 17 15 C16.82658217 18.0903947 17.0714152 21.06622303 17.28515625 24.15234375 C17 27 17 27 14.99609375 28.87890625 C14.00802734 29.43384766 14.00802734 29.43384766 13 30 C13.99 30.33 14.98 30.66 16 31 C16 31.66 16 32.32 16 33 C13.69 33 11.38 33 9 33 C9 34.32 9 35.64 9 37 C10.65 37 12.3 37 14 37 C14 37.66 14 38.32 14 39 C12.68 39 11.36 39 10 39 C10 39.99 10 40.98 10 42 C12.31 42 14.62 42 17 42 C17.07347656 41.06027344 17.07347656 41.06027344 17.1484375 40.1015625 C17.22320312 39.28429687 17.29796875 38.46703125 17.375 37.625 C17.44460937 36.81289062 17.51421875 36.00078125 17.5859375 35.1640625 C18 33 18 33 20 31 C23 30.75 23 30.75 26 31 C28 33 28 33 28 36 C27.01 36 26.02 36 25 36 C24.67 35.34 24.34 34.68 24 34 C22.515 34.495 22.515 34.495 21 35 C21 36.98 21 38.96 21 41 C22.485 41.495 22.485 41.495 24 42 C24.33 41.01 24.66 40.02 25 39 C24.34 39 23.68 39 23 39 C23 38.34 23 37.68 23 37 C24.65 37 26.3 37 28 37 C28.33 35.02 28.66 33.04 29 31 C30.32 31 31.64 31 33 31 C33 34.63 33 38.26 33 42 C34.32 42 35.64 42 37 42 C37 38.37 37 34.74 37 31 C37.99 31 38.98 31 40 31 C40.08114106 32.77007714 40.13925505 34.54122098 40.1875 36.3125 C40.23970703 37.79169922 40.23970703 37.79169922 40.29296875 39.30078125 C40 42 40 42 38.48828125 43.85546875 C37.99714844 44.23316406 37.50601563 44.61085937 37 45 C37.27714844 45.66386719 37.55429688 46.32773438 37.83984375 47.01171875 C38.38318359 48.33623047 38.38318359 48.33623047 38.9375 49.6875 C39.47697266 50.99267578 39.47697266 50.99267578 40.02734375 52.32421875 C40.9570312 54.88179265 41.54162625 57.3221323 42 60 C41.01 60 40.02 60 39 60 C39 59.34 39 58.68 39 58 C37.02 58 35.04 58 33 58 C33 58.66 33 59.32 33 60 C32.01 60 31.02 60 30 60 C29.67 59.34 29.34 58.68 29 58 C28.01 58.66 27.02 59.32 26 60 C23.6618385 59.70241581 21.32817964 59.36760731 19 59 C16.67841935 59.34659295 16.67841935 59.34659295 15 60 C15 59.34 15 58.68 15 58 C13.02 58 11.04 58 9 58 C9 58.66 9 59.32 9 60 C8.01 60 7.02 60 6 60 C6 59.01 6 58.02 6 57 C5.34 57 4.68 57 4 57 C3.67 57.99 3.34 58.98 3 60 C0.125 60.125 0.125 60.125 -3 60 C-5.52017426 57.47982574 -5.29730377 56.48500151 -5.3125 53 C-5.32925781 52.113125 -5.34601563 51.22625 -5.36328125 50.3125 C-5.24339844 49.549375 -5.12351562 48.78625 -5 48 C-4.01 47.34 -3.02 46.68 -2 46 C-2.495 45.566875 -2.99 45.13375 -3.5 44.6875 C-5 43 -5 43 -5 40 C-3.02 40.66 -1.04 41.32 1 42 C1 41.34 1 40.68 1 40 C-0.98 39.01 -2.96 38.02 -5 37 C-4.67 35.35 -4.34 33.7 -4 32 C-3.01 31.67 -2.02 31.34 -1 31 C-1 30.34 -1 29.68 -1 29 C-2.32 28.34 -3.64 27.68 -5 27 C-5.1352403 25.39815374 -5.23210847 23.79303374 -5.3125 22.1875 C-5.37050781 21.29417969 -5.42851563 20.40085937 -5.48828125 19.48046875 C-5.32714844 18.66191406 -5.16601562 17.84335938 -5 17 C-4.175 16.54625 -3.35 16.0925 -2.5 15.625 C-1.675 15.08875 -0.85 14.5525 0 14 C0.60624398 10.57639262 0.60624398 10.57639262 0.3125 6.8125 C0.26738281 5.54019531 0.22226563 4.26789063 0.17578125 2.95703125 C0.08876953 1.49330078 0.08876953 1.49330078 0 0 Z " fill="#F6F8F9" transform="translate(114,81)"/>
<path d="M0 0 C2.97 0 5.94 0 9 0 C9 0.66 9 1.32 9 2 C6.69 2 4.38 2 2 2 C2 3.32 2 4.64 2 6 C3.65 6 5.3 6 7 6 C7 6.66 7 7.32 7 8 C5.68 8 4.36 8 3 8 C3 8.99 3 9.98 3 11 C5.31 11 7.62 11 10 11 C10.04898438 10.37351562 10.09796875 9.74703125 10.1484375 9.1015625 C10.22320312 8.28429687 10.29796875 7.46703125 10.375 6.625 C10.47941406 5.40683594 10.47941406 5.40683594 10.5859375 4.1640625 C11 2 11 2 13 0 C16 -0.25 16 -0.25 19 0 C21 2 21 2 21 5 C20.01 5 19.02 5 18 5 C17.67 4.34 17.34 3.68 17 3 C16.01 3.33 15.02 3.66 14 4 C14 5.98 14 7.96 14 10 C14.99 10.33 15.98 10.66 17 11 C17.33 10.01 17.66 9.02 18 8 C17.34 8 16.68 8 16 8 C16 7.34 16 6.68 16 6 C17.65 6 19.3 6 21 6 C21.33 4.02 21.66 2.04 22 0 C23.32 0 24.64 0 26 0 C26 3.63 26 7.26 26 11 C27.32 11 28.64 11 30 11 C30 7.37 30 3.74 30 0 C30.99 0 31.98 0 33 0 C33.08114106 1.77007714 33.13925505 3.54122098 33.1875 5.3125 C33.23970703 6.79169922 33.23970703 6.79169922 33.29296875 8.30078125 C33 11 33 11 31.48828125 12.85546875 C30.99714844 13.23316406 30.50601563 13.61085938 30 14 C30.41572266 14.99580078 30.41572266 14.99580078 30.83984375 16.01171875 C31.38318359 17.33623047 31.38318359 17.33623047 31.9375 18.6875 C32.47697266 19.99267578 32.47697266 19.99267578 33.02734375 21.32421875 C33.9570312 23.88179265 34.54162625 26.3221323 35 29 C34.01 29 33.02 29 32 29 C32 28.34 32 27.68 32 27 C30.02 27 28.04 27 26 27 C26 27.66 26 28.32 26 29 C25.01 29 24.02 29 23 29 C22.67 28.34 22.34 27.68 22 27 C21.01 27.66 20.02 28.32 19 29 C16.6618385 28.70241581 14.32817964 28.36760731 12 28 C9.67841935 28.34659295 9.67841935 28.34659295 8 29 C8 28.34 8 27.68 8 27 C6.02 27 4.04 27 2 27 C2 27.66 2 28.32 2 29 C1.01 28.67 0.02 28.34 -1 28 C0.32 23.71 1.64 19.42 3 15 C2.01 14.67 1.02 14.34 0 14 C0 9.38 0 4.76 0 0 Z " fill="#EBF0F3" transform="translate(121,112)"/>
<path d="M0 0 C1.32 0 2.64 0 4 0 C4 3.63 4 7.26 4 11 C5.32 11 6.64 11 8 11 C8 7.37 8 3.74 8 0 C8.99 0 9.98 0 11 0 C11.08114106 1.77007714 11.13925505 3.54122098 11.1875 5.3125 C11.23970703 6.79169922 11.23970703 6.79169922 11.29296875 8.30078125 C11 11 11 11 9.48828125 12.85546875 C8.99714844 13.23316406 8.50601563 13.61085938 8 14 C8.41572266 14.99580078 8.41572266 14.99580078 8.83984375 16.01171875 C9.20207031 16.89472656 9.56429687 17.77773437 9.9375 18.6875 C10.29714844 19.55761719 10.65679687 20.42773438 11.02734375 21.32421875 C11.9570312 23.88179265 12.54162625 26.3221323 13 29 C12.01 29 11.02 29 10 29 C10 28.34 10 27.68 10 27 C8.02 27 6.04 27 4 27 C4 27.66 4 28.32 4 29 C3.01 29 2.02 29 1 29 C-1 27 -1 27 -1.25 25.0625 C-1.88332259 22.62899453 -1.88332259 22.62899453 -5.0625 21.25 C-6.031875 20.8375 -7.00125 20.425 -8 20 C-8 19.34 -8 18.68 -8 18 C-6.35 18 -4.7 18 -3 18 C-3 18.66 -3 19.32 -3 20 C-2.34 20 -1.68 20 -1 20 C-1.33 19.01 -1.66 18.02 -2 17 C-5.00847418 15.77479736 -5.00847418 15.77479736 -8 15 C-4.25 13 -4.25 13 -2 13 C-1.34 8.71 -0.68 4.42 0 0 Z " fill="#EEF2F5" transform="translate(143,112)"/>
<path d="M0 0 C2.64 0 5.28 0 8 0 C8 2.64 8 5.28 8 8 C10.64 8 13.28 8 16 8 C16 10.64 16 13.28 16 16 C13.36 16 10.72 16 8 16 C8 17.98 8 19.96 8 22 C5.36 22 2.72 22 0 22 C0 20.02 0 18.04 0 16 C-2.31 16 -4.62 16 -7 16 C-7 13.36 -7 10.72 -7 8 C-4.69 8 -2.38 8 0 8 C0 5.36 0 2.72 0 0 Z " fill="#FADF22" transform="translate(71,113)"/>
<path d="M0 0 C6.0546875 -0.1953125 6.0546875 -0.1953125 8 0 C10 2 10 2 10.265625 4.3125 C10.26046875 5.199375 10.2553125 6.08625 10.25 7 C10.25515625 7.886875 10.2603125 8.77375 10.265625 9.6875 C10 12 10 12 8 14 C5.31160615 14.26991906 2.70858064 14.08737357 0 14 C0 9.38 0 4.76 0 0 Z " fill="#2767AB" transform="translate(138,96)"/>
<path d="M0 0 C3 0.25 3 0.25 5 2.25 C5.30078125 4.5625 5.30078125 4.5625 5.3125 7.25 C5.32925781 8.136875 5.34601563 9.02375 5.36328125 9.9375 C5.24339844 10.700625 5.12351563 11.46375 5 12.25 C2 14.25 2 14.25 -1.125 13.9375 C-4 13.25 -4 13.25 -5 12.25 C-5.1245486 10.60769636 -5.17568524 8.95947724 -5.1875 7.3125 C-5.20167969 6.41660156 -5.21585938 5.52070312 -5.23046875 4.59765625 C-4.86201028 0.84437591 -3.64782036 0.30398503 0 0 Z " fill="#4075B0" transform="translate(173,111.75)"/>
<path d="M0 0 C2.5625 0.3125 2.5625 0.3125 4.203125 1.546875 C5.93310127 3.79385567 5.93513038 5.06737357 5.875 7.875 C5.87113281 8.66003906 5.86726562 9.44507812 5.86328125 10.25390625 C5.5625 12.3125 5.5625 12.3125 3.5625 14.3125 C0.5625 14.5625 0.5625 14.5625 -2.4375 14.3125 C-4.4375 12.3125 -4.4375 12.3125 -4.703125 10 C-4.69796875 9.113125 -4.6928125 8.22625 -4.6875 7.3125 C-4.69265625 6.425625 -4.6978125 5.53875 -4.703125 4.625 C-4.31923239 1.28287612 -3.30723298 0.42400423 0 0 Z " fill="#2F69AB" transform="translate(179.4375,95.6875)"/>
<path d="M0 0 C6.0546875 -0.1953125 6.0546875 -0.1953125 8 0 C10.42522207 2.42522207 10.29629254 3.1720679 10.3125 6.5 C10.33763672 7.69109375 10.33763672 7.69109375 10.36328125 8.90625 C10.24339844 9.5971875 10.12351563 10.288125 10 11 C6.3558226 13.4294516 4.28758728 13.16179575 0 13 C0 8.71 0 4.42 0 0 Z " fill="#4B7CB5" transform="translate(163,97)"/>
<path d="M0 0 C6.0546875 -0.1953125 6.0546875 -0.1953125 8 0 C8.66 0.66 9.32 1.32 10 2 C9.77289324 4.01151705 9.53928901 6.02344239 9.2265625 8.0234375 C8.97286301 10.23674688 9.2178162 11.91417653 10 14 C9.01 14 8.02 14 7 14 C6.71125 13.195625 6.4225 12.39125 6.125 11.5625 C5.26737432 8.8673532 5.26737432 8.8673532 3 8 C3 9.98 3 11.96 3 14 C2.01 14 1.02 14 0 14 C0 9.38 0 4.76 0 0 Z " fill="#3E76B3" transform="translate(156,112)"/>
<path d="M0 0 C1.32 0 2.64 0 4 0 C4.67031719 1.9570868 5.33614683 3.91571113 6 5.875 C6.556875 7.51082031 6.556875 7.51082031 7.125 9.1796875 C8 12 8 12 8 14 C7.01 14 6.02 14 5 14 C5 13.34 5 12.68 5 12 C3.02 12 1.04 12 -1 12 C-1 12.66 -1 13.32 -1 14 C-1.99 14 -2.98 14 -4 14 C-3.00956295 9.16371695 -2.04301154 4.52381127 0 0 Z " fill="#5989BC" transform="translate(148,127)"/>
<path d="M0 0 C4.5 2.25 4.5 2.25 6 6 C6.33 4.02 6.66 2.04 7 0 C7.99 0 8.98 0 10 0 C10 4.62 10 9.24 10 14 C9.01 14 8.02 14 7 14 C5.02 10.535 5.02 10.535 3 7 C2.67 9.31 2.34 11.62 2 14 C1.34 14 0.68 14 0 14 C0 9.38 0 4.76 0 0 Z " fill="#1A5FA7" transform="translate(196,112)"/>
<path d="M0 0 C6.0546875 -0.1953125 6.0546875 -0.1953125 8 0 C10 2 10 2 10.1875 4.5625 C10 7 10 7 9 8 C7.00041636 8.04080783 4.99954746 8.04254356 3 8 C3 9.98 3 11.96 3 14 C2.01 14 1.02 14 0 14 C0 9.38 0 4.76 0 0 Z " fill="#5A88BE" transform="translate(114,81)"/>
<path d="M0 0 C0.99 0 1.98 0 3 0 C3 3.63 3 7.26 3 11 C4.32 11 5.64 11 7 11 C7 7.37 7 3.74 7 0 C7.99 0 8.98 0 10 0 C10.08114106 1.77007714 10.13925505 3.54122098 10.1875 5.3125 C10.22230469 6.29863281 10.25710937 7.28476563 10.29296875 8.30078125 C10 11 10 11 8.6484375 12.8359375 C6.33464771 14.46984593 4.76572542 14.35458018 2 14 C0 12 0 12 -0.1953125 9.1796875 C-0.17210937 8.08914062 -0.14890625 6.99859375 -0.125 5.875 C-0.10695312 4.77929688 -0.08890625 3.68359375 -0.0703125 2.5546875 C-0.04710937 1.71164063 -0.02390625 0.86859375 0 0 Z " fill="#2F6BAD" transform="translate(144,112)"/>
<path d="M0 0 C0.99 0 1.98 0 3 0 C3.33 3.63 3.66 7.26 4 11 C4.66 11 5.32 11 6 11 C6.33 7.37 6.66 3.74 7 0 C7.99 0 8.98 0 10 0 C10.05389087 1.95803507 10.09274217 3.91648909 10.125 5.875 C10.14820313 6.96554688 10.17140625 8.05609375 10.1953125 9.1796875 C10 12 10 12 8 14 C5 14.25 5 14.25 2 14 C0 12 0 12 -0.1953125 9.1796875 C-0.17210938 8.08914062 -0.14890625 6.99859375 -0.125 5.875 C-0.10695313 4.77929688 -0.08890625 3.68359375 -0.0703125 2.5546875 C-0.04710938 1.71164063 -0.02390625 0.86859375 0 0 Z " fill="#2A66AB" transform="translate(121,96)"/>
<path d="M0 0 C3 0.25 3 0.25 5 2.25 C5 3.24 5 4.23 5 5.25 C4.01 5.25 3.02 5.25 2 5.25 C1.67 4.59 1.34 3.93 1 3.25 C0.01 3.58 -0.98 3.91 -2 4.25 C-2 6.23 -2 8.21 -2 10.25 C-1.01 10.58 -0.02 10.91 1 11.25 C1.33 10.26 1.66 9.27 2 8.25 C1.34 8.25 0.68 8.25 0 8.25 C0 7.59 0 6.93 0 6.25 C1.65 6.25 3.3 6.25 5 6.25 C4.67 8.56 4.34 10.87 4 13.25 C0.625 13.875 0.625 13.875 -3 14.25 C-5 12.25 -5 12.25 -5.265625 9.9375 C-5.26046875 9.050625 -5.2553125 8.16375 -5.25 7.25 C-5.25515625 6.363125 -5.2603125 5.47625 -5.265625 4.5625 C-4.83803703 0.83996944 -3.62712046 0.30226004 0 0 Z " fill="#1E60A8" transform="translate(137,111.75)"/>
<path d="M0 0 C2.97 0 5.94 0 9 0 C9 0.66 9 1.32 9 2 C7.02 2 5.04 2 3 2 C3 3.32 3 4.64 3 6 C4.32 6 5.64 6 7 6 C7 6.66 7 7.32 7 8 C5.68 8 4.36 8 3 8 C3 8.99 3 9.98 3 11 C5.31 11 7.62 11 10 11 C10 11.99 10 12.98 10 14 C6.7 14 3.4 14 0 14 C0 9.38 0 4.76 0 0 Z " fill="#2A66AB" transform="translate(184,112)"/>
<path d="M0 0 C0.99 0 1.98 0 3 0 C3 4.62 3 9.24 3 14 C2.34 13.67 1.68 13.34 1 13 C1 12.34 1 11.68 1 11 C-1.31 11 -3.62 11 -6 11 C-6 10.01 -6 9.02 -6 8 C-4.68 8 -3.36 8 -2 8 C-2 7.34 -2 6.68 -2 6 C-3.32 6 -4.64 6 -6 6 C-6 4.68 -6 3.36 -6 2 C-4.02 2 -2.04 2 0 2 C0 1.34 0 0.68 0 0 Z " fill="#E1E8F0" transform="translate(193,112)"/>
<path d="M0 0 C2.33944736 0.28730055 4.6739143 0.61936779 7 1 C7.33 2.32 7.66 3.64 8 5 C7.01 5 6.02 5 5 5 C4.67 4.34 4.34 3.68 4 3 C3.01 2.67 2.02 2.34 1 2 C1.72268235 5.2985139 1.72268235 5.2985139 5.0625 6.6875 C6.031875 7.120625 7.00125 7.55375 8 8 C7.67 9.65 7.34 11.3 7 13 C3.625 13.625 3.625 13.625 0 14 C-0.66 13.34 -1.32 12.68 -2 12 C-2 11.01 -2 10.02 -2 9 C-0.02 9.66 1.96 10.32 4 11 C4 10.34 4 9.68 4 9 C2.02 8.01 0.04 7.02 -2 6 C-1.125 1.125 -1.125 1.125 0 0 Z " fill="#2160A7" transform="translate(111,112)"/>
<path d="M0 0 C0.928125 0.20625 1.85625 0.4125 2.8125 0.625 C3.1425 1.945 3.4725 3.265 3.8125 4.625 C2.8225 4.625 1.8325 4.625 0.8125 4.625 C0.8125 3.965 0.8125 3.305 0.8125 2.625 C-0.5075 2.625 -1.8275 2.625 -3.1875 2.625 C-2.8575 5.265 -2.5275 7.905 -2.1875 10.625 C-1.5275 10.625 -0.8675 10.625 -0.1875 10.625 C0.1425 9.965 0.4725 9.305 0.8125 8.625 C1.8025 8.625 2.7925 8.625 3.8125 8.625 C3.1525 10.275 2.4925 11.925 1.8125 13.625 C-1.0625 13.75 -1.0625 13.75 -4.1875 13.625 C-6.70767426 11.10482574 -6.48480377 10.11000151 -6.5 6.625 C-6.51675781 5.738125 -6.53351563 4.85125 -6.55078125 3.9375 C-6.43089844 3.174375 -6.31101562 2.41125 -6.1875 1.625 C-3.1875 -0.375 -3.1875 -0.375 0 0 Z " fill="#1D5FA7" transform="translate(115.1875,127.375)"/>
<path d="M0 0 C0.928125 0.20625 1.85625 0.4125 2.8125 0.625 C3.1425 1.945 3.4725 3.265 3.8125 4.625 C2.8225 4.625 1.8325 4.625 0.8125 4.625 C0.8125 3.965 0.8125 3.305 0.8125 2.625 C-0.5075 2.625 -1.8275 2.625 -3.1875 2.625 C-2.8575 5.265 -2.5275 7.905 -2.1875 10.625 C-1.5275 10.625 -0.8675 10.625 -0.1875 10.625 C0.1425 9.965 0.4725 9.305 0.8125 8.625 C1.8025 8.625 2.7925 8.625 3.8125 8.625 C3.1525 10.275 2.4925 11.925 1.8125 13.625 C-1.0625 13.75 -1.0625 13.75 -4.1875 13.625 C-6.70767426 11.10482574 -6.48480377 10.11000151 -6.5 6.625 C-6.51675781 5.738125 -6.53351563 4.85125 -6.55078125 3.9375 C-6.43089844 3.174375 -6.31101562 2.41125 -6.1875 1.625 C-3.1875 -0.375 -3.1875 -0.375 0 0 Z " fill="#1A5EA6" transform="translate(115.1875,96.375)"/>
<path d="M0 0 C2.97 0 5.94 0 9 0 C9 0.66 9 1.32 9 2 C6.69 2 4.38 2 2 2 C2 3.32 2 4.64 2 6 C3.65 6 5.3 6 7 6 C7 6.66 7 7.32 7 8 C5.68 8 4.36 8 3 8 C3 8.99 3 9.98 3 11 C4.98 11 6.96 11 9 11 C9 11.99 9 12.98 9 14 C6.03 14 3.06 14 0 14 C0 9.38 0 4.76 0 0 Z " fill="#3A70B0" transform="translate(121,112)"/>
<path d="M0 0 C3.125 0.375 3.125 0.375 6 1 C6.33 2.32 6.66 3.64 7 5 C6.34 5 5.68 5 5 5 C5 4.34 5 3.68 5 3 C3.35 3 1.7 3 0 3 C1.50663783 6.01327566 4.03166411 6.61056618 7 8 C7 9.65 7 11.3 7 13 C0.25 14.125 0.25 14.125 -2 13 C-2 11.68 -2 10.36 -2 9 C-1.34 9 -0.68 9 0 9 C0.33 9.66 0.66 10.32 1 11 C1.99 11 2.98 11 4 11 C4.33 10.34 4.66 9.68 5 9 C3.02 8.34 1.04 7.68 -1 7 C-1.625 4.625 -1.625 4.625 -2 2 C-1.34 1.34 -0.68 0.68 0 0 Z " fill="#1057A3" transform="translate(135,127)"/>
<path d="M0 0 C0.33 0 0.66 0 1 0 C1.33 3.96 1.66 7.92 2 12 C4.475 12.99 4.475 12.99 7 14 C6.67 14.66 6.34 15.32 6 16 C4.35 16 2.7 16 1 16 C1 20.62 1 25.24 1 30 C0.67 30 0.34 30 0 30 C0 26.37 0 22.74 0 19 C-0.66 19 -1.32 19 -2 19 C-2 18.34 -2 17.68 -2 17 C-3.65 16.67 -5.3 16.34 -7 16 C-7 15.34 -7 14.68 -7 14 C-6.38125 13.896875 -5.7625 13.79375 -5.125 13.6875 C-2.63473516 13.12474627 -2.63473516 13.12474627 -1 10 C-0.54398739 7.49103314 -0.54398739 7.49103314 -0.375 4.8125 C-0.30023438 3.91144531 -0.22546875 3.01039062 -0.1484375 2.08203125 C-0.09945312 1.39496094 -0.05046875 0.70789063 0 0 Z " fill="#EBF0F3" transform="translate(120,96)"/>
<path d="M0 0 C0.66 1.32 1.32 2.64 2 4 C-0.97 3.505 -0.97 3.505 -4 3 C-2.62308038 5.75383923 -0.63279958 6.51483101 2 8 C1.125 12.875 1.125 12.875 0 14 C-2.4375 14.1875 -2.4375 14.1875 -5 14 C-5.66 13.34 -6.32 12.68 -7 12 C-7 11.01 -7 10.02 -7 9 C-6.34 9 -5.68 9 -5 9 C-5 9.66 -5 10.32 -5 11 C-3.35 11 -1.7 11 0 11 C-1.50663783 7.98672434 -4.03166411 7.38943382 -7 6 C-7 4.35 -7 2.7 -7 1 C-4.53721199 -0.231394 -2.7204945 -0.07159196 0 0 Z " fill="#0F55A3" transform="translate(133,81)"/>
<path d="M0 0 C0.99 0 1.98 0 3 0 C3 0.99 3 1.98 3 3 C2.34 3 1.68 3 1 3 C0.67 4.98 0.34 6.96 0 9 C1.32 9 2.64 9 4 9 C3.67 7.35 3.34 5.7 3 4 C3.66 3.67 4.32 3.34 5 3 C5.99 6.3 6.98 9.6 8 13 C7.01 13 6.02 13 5 13 C5 12.34 5 11.68 5 11 C3.02 11 1.04 11 -1 11 C-1 11.66 -1 12.32 -1 13 C-1.99 13 -2.98 13 -4 13 C-3.52343588 11.20763933 -3.04366502 9.41613103 -2.5625 7.625 C-2.29566406 6.62726563 -2.02882812 5.62953125 -1.75390625 4.6015625 C-1 2 -1 2 0 0 Z " fill="#1A5DA6" transform="translate(153,97)"/>
<path d="M0 0 C1.32 0 2.64 0 4 0 C4 1.65 4 3.3 4 5 C3.01 4.67 2.02 4.34 1 4 C0.67 5.98 0.34 7.96 0 10 C1.32 10 2.64 10 4 10 C4 9.01 4 8.02 4 7 C4.66 7 5.32 7 6 7 C6.66 9.31 7.32 11.62 8 14 C7.01 14 6.02 14 5 14 C5 13.34 5 12.68 5 12 C3.02 12 1.04 12 -1 12 C-1 12.66 -1 13.32 -1 14 C-1.99 13.67 -2.98 13.34 -4 13 C-2.68 8.71 -1.36 4.42 0 0 Z " fill="#1F60A7" transform="translate(124,127)"/>
<path d="M0 0 C3 0.25 3 0.25 5 2.25 C5.1953125 4.4140625 5.1953125 4.4140625 5.125 6.875 C5.10695312 7.69226563 5.08890625 8.50953125 5.0703125 9.3515625 C5.03550781 10.29128906 5.03550781 10.29128906 5 11.25 C2.53721199 8.78721199 2.00228745 6.54323018 1 3.25 C0.01 3.58 -0.98 3.91 -2 4.25 C-2.33 6.23 -2.66 8.21 -3 10.25 C-3.66 10.25 -4.32 10.25 -5 10.25 C-5.1953125 4.1953125 -5.1953125 4.1953125 -5 2.25 C-3 0.25 -3 0.25 0 0 Z " fill="#1359A5" transform="translate(173,111.75)"/>
<path d="M0 0 C0.66 0 1.32 0 2 0 C1.67 1.98 1.34 3.96 1 6 C4.465 5.505 4.465 5.505 8 5 C8.33 6.65 8.66 8.3 9 10 C8.01 10 7.02 10 6 10 C6 9.34 6 8.68 6 8 C4.02 8 2.04 8 0 8 C0 8.66 0 9.32 0 10 C-0.99 10 -1.98 10 -3 10 C-2.69201674 8.51988629 -2.378482 7.04092675 -2.0625 5.5625 C-1.88847656 4.73878906 -1.71445313 3.91507813 -1.53515625 3.06640625 C-1 1 -1 1 0 0 Z " fill="#165AA5" transform="translate(147,131)"/>
<path d="M0 0 C2.475 0.495 2.475 0.495 5 1 C5 3.31 5 5.62 5 8 C3.35 8.33 1.7 8.66 0 9 C0 6.03 0 3.06 0 0 Z " fill="#E5EBF1" transform="translate(141,99)"/>
<path d="M0 0 C1.32 0 2.64 0 4 0 C4 2.64 4 5.28 4 8 C2.0625 8.5625 2.0625 8.5625 0 9 C-1 8 -1 8 -1.125 4.5 C-1 1 -1 1 0 0 Z " fill="#ECF1F4" transform="translate(178,99)"/>
<path d="M0 0 C0.99 0 1.98 0 3 0 C3 4.62 3 9.24 3 14 C2.01 14 1.02 14 0 14 C0 9.38 0 4.76 0 0 Z " fill="#2C65A9" transform="translate(133,96)"/>
<path d="M0 0 C0.99 0 1.98 0 3 0 C3 4.62 3 9.24 3 14 C2.01 14 1.02 14 0 14 C0 9.38 0 4.76 0 0 Z " fill="#2362A7" transform="translate(109,81)"/>
<path d="M0 0 C1.65 0 3.3 0 5 0 C4.67 2.31 4.34 4.62 4 7 C1.69 7.33 -0.62 7.66 -3 8 C-3.66 7.01 -4.32 6.02 -5 5 C-2 4 -2 4 1 5 C1.33 4.01 1.66 3.02 2 2 C1.34 2 0.68 2 0 2 C0 1.34 0 0.68 0 0 Z " fill="#2663A8" transform="translate(137,118)"/>
<path d="M0 0 C2.97 0 5.94 0 9 0 C9 0.66 9 1.32 9 2 C6.69 2 4.38 2 2 2 C2 3.32 2 4.64 2 6 C3.65 6 5.3 6 7 6 C7 6.66 7 7.32 7 8 C5.02 8 3.04 8 1 8 C-0.35439668 5.29120665 -0.06501451 2.99066732 0 0 Z " fill="#0651A2" transform="translate(121,112)"/>
<path d="M0 0 C0.99 0.33 1.98 0.66 3 1 C3 3.64 3 6.28 3 9 C1.68 9 0.36 9 -1 9 C-1.09765625 2.84765625 -1.09765625 2.84765625 -1 1 C-0.67 0.67 -0.34 0.34 0 0 Z " fill="#F6F8F9" transform="translate(172,114)"/>
<path d="M0 0 C0.33 1.32 0.66 2.64 1 4 C0.01 4 -0.98 4 -2 4 C-2 3.34 -2 2.68 -2 2 C-3.32 2 -4.64 2 -6 2 C-6 4.31 -6 6.62 -6 9 C-6.33 9 -6.66 9 -7 9 C-7 7.02 -7 5.04 -7 3 C-7.66 3 -8.32 3 -9 3 C-8.67 2.01 -8.34 1.02 -8 0 C-5.13822943 -1.43088528 -3.06624227 -0.59991697 0 0 Z " fill="#376FAF" transform="translate(118,97)"/>
<path d="M0 0 C0.33 0 0.66 0 1 0 C1.33 2.31 1.66 4.62 2 7 C2.66 7 3.32 7 4 7 C4.33 6.34 4.66 5.68 5 5 C5.99 5 6.98 5 8 5 C7.34 6.65 6.68 8.3 6 10 C3.125 10.1875 3.125 10.1875 0 10 C-0.66 9.01 -1.32 8.02 -2 7 C-1.34 7 -0.68 7 0 7 C0 4.69 0 2.38 0 0 Z " fill="#366FAE" transform="translate(111,131)"/>
<path d="M0 0 C0.66 0 1.32 0 2 0 C1.67 1.65 1.34 3.3 1 5 C-2.375 5.625 -2.375 5.625 -6 6 C-6.66 5.34 -7.32 4.68 -8 4 C-8 3.01 -8 2.02 -8 1 C-6.02 1.66 -4.04 2.32 -2 3 C-1.34 2.01 -0.68 1.02 0 0 Z " fill="#2A67AB" transform="translate(117,120)"/>
<path d="M0 0 C2.64 0 5.28 0 8 0 C8.33 0.99 8.66 1.98 9 3 C6.69 2.34 4.38 1.68 2 1 C2.02320313 1.61488281 2.04640625 2.22976562 2.0703125 2.86328125 C2.08835938 3.67152344 2.10640625 4.47976562 2.125 5.3125 C2.14820313 6.11300781 2.17140625 6.91351563 2.1953125 7.73828125 C2 10 2 10 0 13 C0 8.71 0 4.42 0 0 Z " fill="#014DA1" transform="translate(163,97)"/>
<path d="M0 0 C0.99 0 1.98 0 3 0 C3 3.63 3 7.26 3 11 C2.01 11 1.02 11 0 11 C0 7.37 0 3.74 0 0 Z " fill="#1B5EA7" transform="translate(151,112)"/>
<path d="M0 0 C1.32 0 2.64 0 4 0 C4 2.64 4 5.28 4 8 C2.68 8 1.36 8 0 8 C0 5.36 0 2.72 0 0 Z " fill="#FBFCFC" transform="translate(166,99)"/>
<path d="M0 0 C3.375 -0.125 3.375 -0.125 7 0 C7.66 0.66 8.32 1.32 9 2 C8.625 4.125 8.625 4.125 8 6 C7.34 5.01 6.68 4.02 6 3 C3.94074861 2.27617533 3.94074861 2.27617533 2 2 C2 3.65 2 5.3 2 7 C0.5393715 4.35261084 0 3.10551666 0 0 Z " fill="#0C55A3" transform="translate(115,81)"/>
<path d="M0 0 C0.66 0 1.32 0 2 0 C2.33 2.64 2.66 5.28 3 8 C3.99 8.33 4.98 8.66 6 9 C6 9.66 6 10.32 6 11 C1.125 10.125 1.125 10.125 0 9 C-0.07179964 7.48071962 -0.08392007 5.95832518 -0.0625 4.4375 C-0.05347656 3.61121094 -0.04445312 2.78492187 -0.03515625 1.93359375 C-0.02355469 1.29550781 -0.01195312 0.65742187 0 0 Z " fill="#0550A2" transform="translate(175,99)"/>
<path d="M0 0 C2 3 2 3 2 5 C1.34 5 0.68 5 0 5 C0 5.99 0 6.98 0 8 C-1.32 8 -2.64 8 -4 8 C-3.67 6.02 -3.34 4.04 -3 2 C-2.34 2 -1.68 2 -1 2 C-0.67 1.34 -0.34 0.68 0 0 Z " fill="#93B0D0" transform="translate(128,129)"/>
<path d="M0 0 C1.32 0 2.64 0 4 0 C4.99088067 3.08273985 4.92482533 4.91724891 4 8 C4 8.66 4 9.32 4 10 C2.68 10 1.36 10 0 10 C0.33 8.02 0.66 6.04 1 4 C1.66 4 2.32 4 3 4 C3 3.01 3 2.02 3 1 C2.01 0.67 1.02 0.34 0 0 Z " fill="#97B3D1" transform="translate(153,96)"/>
<path d="M0 0 C0 2.97 0 5.94 0 9 C-0.99 8.67 -1.98 8.34 -3 8 C-3 5.69 -3 3.38 -3 1 C-1 0 -1 0 0 0 Z " fill="#2B68AB" transform="translate(173,99)"/>
<path d="M0 0 C0.66 0 1.32 0 2 0 C2 0.66 2 1.32 2 2 C3.98 2 5.96 2 8 2 C7.67 2.99 7.34 3.98 7 5 C4.625 5.125 4.625 5.125 2 5 C1.34 4.34 0.68 3.68 0 3 C0 2.01 0 1.02 0 0 Z " fill="#2766AA" transform="translate(126,90)"/>
<path d="M0 0 C1.32 0 2.64 0 4 0 C4 1.65 4 3.3 4 5 C3.01 4.67 2.02 4.34 1 4 C0.67 4.99 0.34 5.98 0 7 C-0.93423645 3.98968256 -1.04449911 3.13349732 0 0 Z " fill="#2161A9" transform="translate(124,127)"/>
<path d="M0 0 C0.66 0 1.32 0 2 0 C2.66 2.31 3.32 4.62 4 7 C3.01 7 2.02 7 1 7 C1 6.01 1 5.02 1 4 C-0.65 4 -2.3 4 -4 4 C-2.68 3.67 -1.36 3.34 0 3 C0 2.01 0 1.02 0 0 Z " fill="#0853A3" transform="translate(128,134)"/>
<path d="M0 0 C1.485 0.99 1.485 0.99 3 2 C3 2.66 3 3.32 3 4 C3.66 4 4.32 4 5 4 C4.67 5.32 4.34 6.64 4 8 C2.68 7.34 1.36 6.68 0 6 C0 4.02 0 2.04 0 0 Z " fill="#C3D1E2" transform="translate(134,116)"/>
<path d="M0 0 C0.99 0.33 1.98 0.66 3 1 C4.1875 4.0625 4.1875 4.0625 5 7 C2.525 6.01 2.525 6.01 0 5 C0 3.35 0 1.7 0 0 Z " fill="#175CA7" transform="translate(197,113)"/>
<path d="M0 0 C0.99 0 1.98 0 3 0 C3.66 2.31 4.32 4.62 5 7 C4.01 7 3.02 7 2 7 C1.34 4.69 0.68 2.38 0 0 Z " fill="#2362A8" transform="translate(161,119)"/>
<path d="M0 0 C2 3 2 3 2 5 C1.01 5 0.02 5 -1 5 C-1 4.34 -1 3.68 -1 3 C-2.98 3 -4.96 3 -7 3 C-7 2.67 -7 2.34 -7 2 C-4.69 1.34 -2.38 0.68 0 0 Z " fill="#326AAD" transform="translate(154,136)"/>
<path d="M0 0 C-2 2 -2 2 -4.5 2.3125 C-5.325 2.209375 -6.15 2.10625 -7 2 C-7.66 1.01 -8.32 0.02 -9 -1 C-5.79937313 -2.60031344 -3.27728194 -1.03173691 0 0 Z " fill="#316BAC" transform="translate(141,124)"/>
<path d="M0 0 C0.99 0.33 1.98 0.66 3 1 C3.33 1.99 3.66 2.98 4 4 C2.68 4 1.36 4 0 4 C-0.33 4.99 -0.66 5.98 -1 7 C-1.04254356 5.00045254 -1.04080783 2.99958364 -1 1 C-0.67 0.67 -0.34 0.34 0 0 Z " fill="#F7F9F9" transform="translate(136,114)"/>
<path d="M0 0 C2.33944736 0.28730055 4.6739143 0.61936779 7 1 C7 1.66 7 2.32 7 3 C5.02 3.33 3.04 3.66 1 4 C0.34 3.01 -0.32 2.02 -1 1 C-0.67 0.67 -0.34 0.34 0 0 Z " fill="#CFDBE7" transform="translate(129,83)"/>
<path d="M0 0 C2.97 0.495 2.97 0.495 6 1 C6.33 2.32 6.66 3.64 7 5 C6.34 5 5.68 5 5 5 C5 4.34 5 3.68 5 3 C4.360625 2.87625 3.72125 2.7525 3.0625 2.625 C2.381875 2.41875 1.70125 2.2125 1 2 C0.67 1.34 0.34 0.68 0 0 Z " fill="#2F6AAA" transform="translate(135,127)"/>
</svg>
